<svg width="48" height="48" viewBox="0 0 48 48" fill="none" xmlns="http://www.w3.org/2000/svg">
<path d="M24 15C28.9706 15 33 19.0294 33 24C33 28.9706 28.9706 33 24 33C19.0294 33 15 28.9706 15 24C15 19.0294 19.0294 15 24 15ZM24 17C20.134 17 17 20.134 17 24C17 27.866 20.134 31 24 31C27.866 31 31 27.866 31 24C31 20.134 27.866 17 24 17ZM26.7529 20.8359C27.1198 20.4232 27.7513 20.386 28.1641 20.7529C28.5768 21.1198 28.614 21.7513 28.2471 22.1641L24.2471 26.6641C23.8935 27.0618 23.2905 27.1137 22.875 26.7812L20.375 24.7812C19.9437 24.4362 19.8737 23.8063 20.2188 23.375C20.5638 22.9437 21.1937 22.8737 21.625 23.2188L23.3838 24.625L26.7529 20.8359Z" fill="#222222"/>
</svg>
