<svg width="48" height="48" viewBox="0 0 48 48" fill="none" xmlns="http://www.w3.org/2000/svg">
<path d="M24 15C28.9706 15 33 19.0294 33 24C33 28.9706 28.9706 33 24 33C19.0294 33 15 28.9706 15 24C15 19.0294 19.0294 15 24 15ZM24 17C20.134 17 17 20.134 17 24C17 27.866 20.134 31 24 31C27.866 31 31 27.866 31 24C31 20.134 27.866 17 24 17ZM25.293 21.293C25.6835 20.9024 26.3165 20.9024 26.707 21.293C27.0976 21.6835 27.0976 22.3165 26.707 22.707L25.4141 24L26.707 25.293C27.0976 25.6835 27.0976 26.3165 26.707 26.707C26.3165 27.0976 25.6835 27.0976 25.293 26.707L24 25.4141L22.707 26.707C22.3165 27.0976 21.6835 27.0976 21.293 26.707C20.9024 26.3165 20.9024 25.6835 21.293 25.293L22.5859 24L21.293 22.707C20.9024 22.3165 20.9024 21.6835 21.293 21.293C21.6835 20.9024 22.3165 20.9024 22.707 21.293L24 22.5859L25.293 21.293Z" fill="#222222"/>
</svg>
