<svg width="28" height="28" viewBox="0 0 28 28" fill="none" xmlns="http://www.w3.org/2000/svg">
<path d="M14 4C19.5228 4 24 8.47715 24 14C24 19.5228 19.5228 24 14 24C8.47715 24 4 19.5228 4 14C4 8.47715 8.47715 4 14 4ZM14 6C9.58172 6 6 9.58172 6 14C6 18.4183 9.58172 22 14 22C18.4183 22 22 18.4183 22 14C22 9.58172 18.4183 6 14 6ZM15.5146 11.0703C15.905 10.68 16.5381 10.6803 16.9287 11.0703C17.3192 11.4608 17.3192 12.0939 16.9287 12.4844L15.4141 13.999L16.9287 15.5146C17.3192 15.9052 17.3192 16.5382 16.9287 16.9287C16.5382 17.3192 15.9052 17.3192 15.5146 16.9287L13.999 15.4141L12.4844 16.9287C12.0939 17.3192 11.4608 17.3192 11.0703 16.9287C10.6803 16.5381 10.68 15.905 11.0703 15.5146L12.584 13.999L11.0703 12.4844C10.6802 12.0938 10.6799 11.4607 11.0703 11.0703C11.4607 10.6799 12.0938 10.6802 12.4844 11.0703L13.999 12.584L15.5146 11.0703Z" fill="currentColor"/>
</svg>
