<svg width="18" height="18" viewBox="0 0 32 32" fill="none" xmlns="http://www.w3.org/2000/svg">
<path d="M28.0037 24.019L8.0405 4.07759C6.93797 2.97626 5.15009 2.97594 4.04717 4.07689C2.94425 5.17784 2.94394 6.96314 4.04648 8.06448L24.0096 28.0059C25.1122 29.1072 26.9001 29.1075 28.003 28.0066C29.1059 26.9056 29.1062 25.1203 28.0037 24.019Z" fill="currentColor"/>
<path d="M23.9633 3.9938L3.99667 23.9317C2.89394 25.0328 2.89394 26.8181 3.99667 27.9193C5.09939 29.0204 6.88727 29.0204 7.99 27.9193L27.9567 7.98138C29.0594 6.88024 29.0594 5.09494 27.9567 3.9938C26.8539 2.89266 25.0661 2.89266 23.9633 3.9938Z" fill="currentColor"/>
</svg>
