<svg width="14" height="14" viewBox="0 0 28 28" fill="none" xmlns="http://www.w3.org/2000/svg">
<path d="M24.2889 20.8734L7.17758 3.78079C6.23254 2.83679 4.70008 2.83653 3.75472 3.7802C2.80936 4.72387 2.80909 6.25412 3.75412 7.19812L20.8654 24.2907C21.8104 25.2347 23.3429 25.235 24.2883 24.2913C25.2336 23.3477 25.2339 21.8174 24.2889 20.8734Z" fill="currentColor"/>
<path d="M20.8257 3.70897L3.71143 20.7986C2.76623 21.7424 2.76623 23.2727 3.71143 24.2165C4.65662 25.1604 6.18909 25.1604 7.13428 24.2165L24.2486 7.1269C25.1938 6.18306 25.1938 4.6528 24.2486 3.70897C23.3034 2.76514 21.7709 2.76514 20.8257 3.70897Z" fill="currentColor"/>
</svg>
