<svg width="28" height="28" viewBox="0 0 28 28" fill="none" xmlns="http://www.w3.org/2000/svg">
<path d="M20.8265 7.88712C21.7207 8.78138 21.8088 9.56185 21.7393 10.0803C21.7022 10.3576 21.6155 10.5882 21.5377 10.7487C21.4992 10.8282 21.4634 10.8881 21.4403 10.9248C21.4387 10.9274 21.4371 10.93 21.4355 10.9324L20.5364 11.8315L17.0009 8.29592L15.9402 9.35658L19.4758 12.8921L13.4419 18.926C13.3688 18.9991 13.2777 19.0518 13.1781 19.0793L9.30352 20.1462C8.85607 20.2693 8.4451 19.8582 8.5681 19.4108L9.63498 15.5362C9.66248 15.4365 9.71518 15.3456 9.78828 15.2724L17.7854 7.27531C17.7865 7.27461 17.7876 7.27397 17.7888 7.27324C17.8255 7.25019 17.8861 7.21509 17.9656 7.17656C18.126 7.09882 18.3567 7.01207 18.634 6.97493C19.1524 6.90553 19.9323 6.99312 20.8265 7.88712Z" stroke="currentColor" stroke-width="1.5"/>
</svg>
