<svg width="48" height="48" viewBox="0 0 48 48" fill="none" xmlns="http://www.w3.org/2000/svg">
<path d="M24 27.5C24.8284 27.5 25.5 28.1716 25.5 29C25.5 29.8284 24.8284 30.5 24 30.5C23.1716 30.5 22.5 29.8284 22.5 29C22.5 28.1716 23.1716 27.5 24 27.5ZM24 22.5C24.8284 22.5 25.5 23.1716 25.5 24C25.5 24.8284 24.8284 25.5 24 25.5C23.1716 25.5 22.5 24.8284 22.5 24C22.5 23.1716 23.1716 22.5 24 22.5ZM24 17.5C24.8284 17.5 25.5 18.1716 25.5 19C25.5 19.8284 24.8284 20.5 24 20.5C23.1716 20.5 22.5 19.8284 22.5 19C22.5 18.1716 23.1716 17.5 24 17.5Z" fill="#222222"/>
</svg>
