<svg width="48" height="48" viewBox="0 0 48 48" fill="none" xmlns="http://www.w3.org/2000/svg">
<path d="M24 15C28.9706 15 33 19.0294 33 24C33 28.9706 28.9706 33 24 33C19.0294 33 15 28.9706 15 24C15 19.0294 19.0294 15 24 15ZM24 17C20.134 17 17 20.134 17 24C17 27.866 20.134 31 24 31C27.866 31 31 27.866 31 24C31 20.134 27.866 17 24 17ZM24 20C24.5523 20 25 20.4477 25 21V23H27C27.5523 23 28 23.4477 28 24C28 24.5523 27.5523 25 27 25H25V27C25 27.5523 24.5523 28 24 28C23.4477 28 23 27.5523 23 27V25H21C20.4477 25 20 24.5523 20 24C20 23.4477 20.4477 23 21 23H23V21C23 20.4477 23.4477 20 24 20Z" fill="#222222"/>
</svg>
