<svg width="48" height="48" viewBox="0 0 48 48" fill="none" xmlns="http://www.w3.org/2000/svg">
<path d="M29.3838 24.1133C29.7781 23.9076 30.2608 23.9874 30.5684 24.3086L32.7227 26.5586C33.1044 26.9576 33.0904 27.5908 32.6914 27.9727C32.2924 28.3544 31.6592 28.3403 31.2774 27.9414L30.5205 27.1504C29.6509 29.9448 27.132 31.9999 24.1035 32C22.5625 32 21.143 31.4628 20.0117 30.5654C19.516 30.1721 19.0759 29.7092 18.7031 29.1924C18.4779 28.8801 18.2766 28.5475 18.1035 28.1982C17.8587 27.7035 18.0611 27.1036 18.5557 26.8584C19.0506 26.6132 19.6513 26.8157 19.8965 27.3105C20.0207 27.5611 20.1643 27.7993 20.3252 28.0225C20.5917 28.3919 20.9049 28.7204 21.2549 28.998C22.0514 29.6299 23.0373 30 24.1035 30C26.088 29.9999 27.8265 28.6986 28.5225 26.8213L27.4375 27.3867C26.9481 27.6421 26.3445 27.4522 26.0889 26.9629C25.8332 26.4734 26.0222 25.869 26.5117 25.6133L29.3838 24.1133ZM23.8965 16C25.4375 16 26.857 16.5372 27.9883 17.4346C28.4841 17.8279 28.9242 18.2908 29.2969 18.8076C29.5221 19.1199 29.7235 19.4525 29.8965 19.8018C30.1414 20.2965 29.9389 20.8964 29.4444 21.1416C28.9495 21.3868 28.3487 21.1843 28.1035 20.6895C27.9794 20.4389 27.8358 20.2007 27.6748 19.9775C27.4084 19.6081 27.0951 19.2796 26.7451 19.002C25.9486 18.3701 24.9627 18 23.8965 18C21.912 18.0001 20.1736 19.3014 19.4776 21.1787L20.5625 20.6133C21.0519 20.3579 21.6555 20.5478 21.9112 21.0371C22.1669 21.5266 21.9778 22.131 21.4883 22.3867L18.6162 23.8867C18.2219 24.0924 17.7393 24.0126 17.4317 23.6914L15.2774 21.4414C14.8956 21.0424 14.9097 20.4092 15.3086 20.0273C15.7076 19.6456 16.3408 19.6597 16.7227 20.0586L17.4795 20.8496C18.3492 18.0552 20.868 16.0001 23.8965 16Z" fill="#222222"/>
</svg>
