<svg width="48" height="48" viewBox="0 0 48 48" fill="none" xmlns="http://www.w3.org/2000/svg">
<path d="M24.5586 15C25.8498 15 26.996 15.8268 27.4043 17.0518L27.7207 18H30C30.5523 18 31 18.4477 31 19C31 19.5523 30.5523 20 30 20V32C30 32.5177 29.6067 32.9438 29.1025 32.9951L29 33H19L18.8975 32.9951C18.427 32.9472 18.0528 32.573 18.0049 32.1025L18 32V20C17.4477 20 17 19.5523 17 19C17 18.4477 17.4477 18 18 18H20.2793L20.5957 17.0518C21.004 15.8268 22.1502 15 23.4414 15H24.5586ZM20 31H28V20H20V31ZM23.4414 17C23.0111 17 22.6293 17.2754 22.4932 17.6836L22.3877 18H25.6123L25.5068 17.6836C25.3707 17.2754 24.9889 17 24.5586 17H23.4414Z" fill="#222222"/>
</svg>
